<?xml version="1.0" encoding="iso-8859-1"?>
<!-- Generator: Adobe Illustrator 19.0.0, SVG Export Plug-In . SVG Version: 6.00 Build 0)  -->
<svg version="1.1" id="Layer_1" xmlns="http://www.w3.org/2000/svg" xmlns:xlink="http://www.w3.org/1999/xlink" x="0px" y="0px"
	 viewBox="0 0 512 512" style="enable-background:new 0 0 512 512;" xml:space="preserve">
<circle style="fill:#FF873D;" cx="255.997" cy="255.998" r="255.997"/>
<path style="fill:#E67733;" d="M510.424,226.995C511.528,236.453,512,246.227,512,256c0,139.98-112.394,253.793-251.901,255.999
	L115.547,367.449v-11.035h21.123l-14.975-17.813l-17.498-152.119h226.522l5.99-8.67l65.418-58.798l108.138,108.138L510.424,226.995z
	"/>
<path style="fill:#004F59;" d="M175.606,365.873c0,0.63,0.158,1.419,0.158,2.207c0,11.822-9.301,21.438-20.808,21.438
	s-20.808-9.616-20.808-21.438c0-0.788,0-1.419,0.158-2.207h10.404c-0.158,0.63-0.158,1.419-0.158,2.207
	c0,5.99,4.729,10.72,10.562,10.72c5.833,0,10.561-4.887,10.561-10.72c0-0.788,0-1.419-0.158-2.207h10.404H175.606z M327.251,365.873
	c0,0.63,0.158,1.419,0.158,2.207c0,11.822-9.301,21.438-20.808,21.438s-20.808-9.616-20.808-21.438c0-0.788,0-1.419,0.158-2.207
	h10.404c-0.158,0.63-0.158,1.419-0.158,2.207c0,5.99,4.729,10.72,10.561,10.72c5.833,0,10.561-4.887,10.561-10.72
	c0-0.788,0-1.419-0.158-2.207h10.404H327.251z"/>
<path style="fill:#F7F7F8;" d="M115.547,356.414h215.014l-18.759-17.498v-0.315H121.695v-7.567l-17.498-144.552h0.63h9.143h18.917
	h9.616h14.818h9.616h14.818h9.616h14.818h9.616h14.818h9.616h14.818h9.616h14.818h9.616h14.818h9.616h16.709
	c1.261-12.137,3.468-13.084,9.773-18.443l56.434-47.606c5.359-2.523,9.458,7.724,2.523,11.822l-56.906,47.763l-20.339,156.219
	l25.537,22.227c2.995,2.68,3.625,9.301-0.946,9.301H114.917v-11.35h0.63V356.414z M314.01,320l15.449-123.744H314.01V320z
	 M304.394,328.828V196.256h-14.818v132.572H304.394z M279.96,328.828V196.256h-14.817v132.572H279.96z M255.527,328.828V196.256
	h-14.818v132.572H255.527z M231.093,328.828V196.256h-14.818v132.572H231.093z M206.66,328.828V196.256h-14.818v132.572H206.66z
	 M182.226,328.828V196.256h-14.818v132.572H182.226z M157.793,328.828V196.256h-14.818v132.572H157.793z M133.36,328.828V196.256
	h-17.813l15.921,132.572h1.734H133.36z"/>
<path style="fill:#006775;" d="M368.76,141.691l25.262-21.536c2.96-2.523,6.893-2.895,8.786-0.83l3.428,3.738
	c1.893,2.065,1.03,5.784-1.93,8.307l-25.262,21.536c-2.96,2.523-6.893,2.895-8.786,0.829l-3.428-3.738
	C364.937,147.933,365.801,144.213,368.76,141.691z"/>
<g>
</g>
<g>
</g>
<g>
</g>
<g>
</g>
<g>
</g>
<g>
</g>
<g>
</g>
<g>
</g>
<g>
</g>
<g>
</g>
<g>
</g>
<g>
</g>
<g>
</g>
<g>
</g>
<g>
</g>
</svg>
