<?xml version="1.0" encoding="iso-8859-1"?>
<!-- Generator: Adobe Illustrator 19.0.0, SVG Export Plug-In . SVG Version: 6.00 Build 0)  -->
<svg version="1.1" id="Layer_1" xmlns="http://www.w3.org/2000/svg" xmlns:xlink="http://www.w3.org/1999/xlink" x="0px" y="0px"
	 viewBox="0 0 512 512" style="enable-background:new 0 0 512 512;" xml:space="preserve">
<g>
	<g>
		<path d="M407.491,98.011c-19.307,0-37.748,5.16-53.99,15.022C338.129,73.158,299.626,46.237,256,46.237
			s-82.129,26.922-97.503,66.797c-16.241-9.863-34.683-15.022-53.99-15.022C46.882,98.011,0,144.893,0,202.519
			c0,27.583,10.652,53.6,29.993,73.26c17.286,17.57,39.759,28.291,64.017,30.701v25.516c0,4.839,3.923,8.762,8.762,8.762
			c4.839,0,8.762-3.923,8.762-8.762v-33.774c0-4.778-3.828-8.676-8.606-8.761c-22.902-0.409-44.368-9.632-60.443-25.972
			c-16.097-16.362-24.962-38.014-24.962-60.97c0-47.963,39.021-86.983,86.984-86.983c19.509,0,37.958,6.332,53.352,18.312
			c2.332,1.814,5.421,2.332,8.215,1.376c2.796-0.956,4.921-3.256,5.653-6.118c9.849-38.474,44.501-65.344,84.271-65.344
			c39.768,0,74.422,26.871,84.269,65.344c0.732,2.862,2.858,5.163,5.653,6.118c2.795,0.956,5.885,0.438,8.215-1.376
			c15.394-11.98,33.843-18.312,53.352-18.312c47.963,0,86.984,39.021,86.984,86.983c0,22.956-8.865,44.609-24.961,60.969
			c-16.076,16.34-37.542,25.564-60.443,25.972c-4.777,0.085-8.606,3.983-8.606,8.761v87.028h-28.81
			c-4.839,0-8.762,3.923-8.762,8.762c0,4.839,3.923,8.762,8.762,8.762h28.811v45.466h-288.93v-45.466h230.912
			c4.839,0,8.762-3.923,8.762-8.762c0-4.839-3.923-8.762-8.762-8.762H111.535v-24.047c0-4.839-3.923-8.762-8.762-8.762
			c-4.839,0-8.762,3.923-8.762,8.762v95.799c0,4.839,3.923,8.762,8.762,8.762h306.455c4.839,0,8.762-3.923,8.762-8.762V306.48
			c24.258-2.41,46.731-13.132,64.017-30.701C501.348,256.12,512,230.102,512,202.519C512,144.893,465.117,98.011,407.491,98.011z"/>
	</g>
</g>
<g>
</g>
<g>
</g>
<g>
</g>
<g>
</g>
<g>
</g>
<g>
</g>
<g>
</g>
<g>
</g>
<g>
</g>
<g>
</g>
<g>
</g>
<g>
</g>
<g>
</g>
<g>
</g>
<g>
</g>
</svg>
